<svg xmlns="http://www.w3.org/2000/svg" width="32" height="36" viewBox="0 0 2099 2302">
  <defs>
    <style>
      .cls-1 {
        fill: #194aa3;
        fill-rule: evenodd;
      }
    </style>
  </defs>
  <path id="Color_Fill_1" data-name="Color Fill 1" class="cls-1" d="M2426,2651H1994q-256.98-438.96-514-878l-1,1q-244.98,438.45-490,877H557c1.568-22.86,20.737-40.86,30-58q53.994-94.995,108-190l336-594q54.495-94.995,109-190l-42-123q-14.505-40.995-29-82-58.995,129.99-118,260l6,6L483,2647c-1-.33-2-0.67-3-1q-20-622.44-40-1245,159.485,84.99,319,170c-0.333-1.33-.667-2.67-1-4q-41-168.48-82-337-36-.495-72-1c-0.2-26-6.885-134.74,3-148q83.491,0.495,167,1,47.495,216.48,95,433h1l142-333,377-3c12.81-14.57,12.6-96.09,5-117H1230l-1-1V999c-0.33-.333-0.67-0.667-1-1l-303-1c-2.8-10.177-4.216-47.344,3-52l301-1v-1q-0.495-9-1-18l-350-2q1-27.5,2-55l348,2c0.33-.333.67-0.667,1-1q-0.495-11.5-1-23l-349-1V785l350-3v-1q-0.495-8-1-16H925l-1-1q0.5-29.5,1-59l304-5q1.005-151.985,2-304l77,1q1.005,135.987,2,272c0.33,0.333.67,0.667,1,1h56c0.33-.333.67-0.667,1-1q1.5-159.984,3-320l78,2q1.005,158.983,2,318l61,1c0.33-.333.67-0.667,1-1q1.5-159.984,3-320l78,2q0.495,158.983,1,318c0.33,0.333.67,0.667,1,1l67-2c6.75-54.583,8.89-135.939,2-194q-0.495-38.5-1-77l89-1c0.33,0.333.67,0.667,1,1q0.495,151.985,1,304l295,4q0.495,29.5,1,59c-0.33.333-.67,0.667-1,1l-296,2c-0.42,7.787.17,13.037,3,17h254c17.32,0,77.87-2.857,83,6-1.6,12.295,3.79,49.065-5,55l-335,3q0.495,10.5,1,21h338q-0.495,28-1,56l-338,1q0.495,9.5,1,19l206,1,90,3q-1.005,24.5-2,49l-295,1v62l-1,1H1590q0.495,58.995,1,118,187.98,0.495,376,1,71.49,164.985,143,330,47.49-214.485,95-429,86.985,0.495,174,1-0.495,74.985-1,150-37.5,1.005-75,2-36.99,164.985-74,330h1q153.99-81.99,308-164l1,1q-20.505,621.945-41,1244c-15.19-4.26-25.26-43.18-32-57q-39.99-81.99-80-164-127.98-261.48-256-523-38.49-78.495-77-157c-9.8-19.16-29.64-43.68-31-68q4.005-2.505,8-5-58.5-129.48-117-259-37.995,109.995-76,220,228.48,392.955,457,786,49.5,84.99,99,170C2403.24,2605.78,2425.04,2627.92,2426,2651Z" transform="translate(-440 -349)"/>
</svg>
