<svg xmlns="http://www.w3.org/2000/svg" viewBox="0 0 250 65">
    <path fill="#00A94F"
        d="M5.764 59.542H3.461V41.473h2.303v18.069zm10.585 0v-8.76c0-1.352-.476-2.451-2.228-2.451-2.252 0-2.577 2.002-2.577 3.729v7.482H9.493v-10.01c0-.877-.05-1.752-.125-2.629h2.177v1.627h.101c.801-1.426 1.752-1.877 3.378-1.877 2.702 0 3.378 1.627 3.378 4.129v8.76h-2.053zm11.987-12.639h2.051v13.914c0 2.828-1.876 3.504-4.654 3.504-2.102 0-4.004-1.051-3.828-3.379h2.302c.025 1.176.801 1.826 1.927 1.826 1.427 0 2.203-.875 2.203-2.176v-2.629h-.077c-.525 1.002-1.676 1.578-2.777 1.578-3.428 0-4.104-2.953-4.104-6.707 0-5.807 2.928-6.182 3.953-6.182 1.326 0 2.378.576 2.953 1.803h.051v-1.552zm-2.402 1.451c-2.328 0-2.402 2.803-2.402 4.48 0 4.053.926 5.004 2.451 5.004 2.479 0 2.402-2.928 2.402-4.68 0-1.876.126-4.804-2.451-4.804zm9.634 5.531c0 3.529.951 4.229 2.553 4.229 1.401 0 2.127-1.125 2.202-2.402h2.252c-.025 2.803-1.752 4.08-4.404 4.08-2.678 0-4.805-.801-4.805-6.381 0-3.705.426-6.758 4.805-6.758 3.604 0 4.504 1.977 4.504 6.156v1.076h-7.107zm4.93-1.551c0-3.68-1.026-4.129-2.527-4.129-1.302 0-2.378.625-2.402 4.129h4.929zm12.086 7.208v-8.76c0-1.352-.475-2.451-2.227-2.451-2.252 0-2.578 2.002-2.578 3.729v7.482h-2.052v-10.01c0-.877-.05-1.752-.125-2.629h2.177v1.627h.101c.801-1.426 1.751-1.877 3.378-1.877 2.703 0 3.379 1.627 3.379 4.129v8.76h-2.053zm5.131-18.069h2.302v2.201h-2.302v-2.201zm2.177 18.069H57.84V46.903h2.052v12.639zm5.204-5.657c0 3.529.951 4.229 2.553 4.229 1.401 0 2.127-1.125 2.202-2.402h2.253c-.025 2.803-1.752 4.08-4.404 4.08-2.678 0-4.805-.801-4.805-6.381 0-3.705.425-6.758 4.805-6.758 3.604 0 4.504 1.977 4.504 6.156v1.076h-7.108zm4.93-1.551c0-3.68-1.025-4.129-2.527-4.129-1.301 0-2.377.625-2.402 4.129h4.929zm7.158-3.529h.05c.851-1.928 1.901-2.152 3.903-2.152v2.127c-.175-.025-.375-.049-.551-.074-.175-.025-.35-.051-.55-.051-2.277 0-2.853 1.727-2.853 3.428v7.459H75.13V46.903h2.053v1.902zm9.809-7.332-3.277 3.529h-1.678l2.228-3.529h2.727zm-4.004 18.069V46.903h2.053v12.639h-2.053zm11.662-1.829H94.6c-.625 1.451-1.602 2.078-3.178 2.078-2.678 0-3.453-1.727-3.453-4.154 0-3.828 3.754-4.004 6.631-3.93.051-1.676.075-3.502-2.127-3.502-1.376 0-2.102.926-1.977 2.252h-2.228c.101-2.828 1.602-3.805 4.279-3.805 3.253 0 4.104 1.678 4.104 3.805v6.08c0 1.002.1 2.027.25 3.004h-2.252v-1.828zm-4.63-1.925c0 1.227.601 2.326 1.977 2.326 1.251 0 2.803-.775 2.603-4.854-1.952.024-4.58-.15-4.58 2.528zm18.993 1.4h.05l3.028-10.285h2.227l-5.73 17.418h-2.127l1.426-4.779-4.279-12.639h2.378l3.027 10.285zm19.994-10.734c.024-1.027-.051-2.053-.526-2.629-.476-.574-1.552-.775-2.026-.775-1.902 0-2.652 1.152-2.729 1.402-.074.199-.525.65-.525 3.754v4.828c0 4.43 1.451 4.955 3.229 4.955.701 0 2.828-.25 2.853-3.777h2.378c.1 5.705-3.93 5.705-5.105 5.705-2.252 0-5.705-.15-5.705-7.158v-5.104c0-5.105 2.252-6.557 5.805-6.557 3.579 0 4.955 1.852 4.73 5.355h-2.379zm5.03 6.957c0-3.705.426-6.758 4.805-6.758s4.805 3.053 4.805 6.758c0 5.58-2.127 6.381-4.805 6.381s-4.805-.801-4.805-6.381zm7.457-.877c0-3.453-1.076-4.203-2.652-4.203s-2.652.75-2.652 4.203c0 4.104.525 5.58 2.652 5.58s2.652-1.477 2.652-5.58zm11.912 7.008v-8.76c0-1.352-.476-2.451-2.228-2.451-2.252 0-2.577 2.002-2.577 3.729v7.482h-2.053v-10.01c0-.877-.05-1.752-.125-2.629h2.178v1.627h.1c.801-1.426 1.752-1.877 3.379-1.877 2.702 0 3.378 1.627 3.378 4.129v8.76h-2.052zm9.033.25c-2.727 0-4.429-1.201-4.354-4.105h2.327c0 .727.024 2.428 2.103 2.428 1.226 0 2.177-.625 2.177-1.926 0-2.252-6.306-2.303-6.306-6.082 0-1.326.801-3.453 4.354-3.453 2.252 0 4.18 1.076 4.004 3.578h-2.277c.025-1.326-.676-2.025-1.977-2.025-1.102 0-1.952.6-1.952 1.701 0 2.227 6.306 2.176 6.306 6.031-.001 2.776-1.902 3.853-4.405 3.853zm7.258-12.889v-2.428l2.052-.926v3.354h2.753v1.553h-2.753v7.732c0 .801 0 1.826 1.877 1.826.149 0 .476-.051.926-.1v1.576c-.676.051-1.352.199-2.027.199-1.952 0-2.827-.801-2.827-2.252v-8.982h-2.077v-1.553h2.076zm9.058 1.902h.051c.85-1.928 1.901-2.152 3.903-2.152v2.127c-.175-.025-.376-.049-.551-.074s-.351-.051-.55-.051c-2.277 0-2.854 1.727-2.854 3.428v7.459h-2.052V46.903h2.052v1.902zm12.462-1.902h2.052v10.01c0 .877.051 1.752.125 2.629h-2.177v-1.527h-.075c-.676 1.15-1.877 1.777-3.203 1.777-2.201 0-3.402-1.102-3.402-3.254v-9.635h2.051v8.76c0 1.525.701 2.553 2.152 2.553 1.102 0 2.478-.826 2.478-2.93v-8.383zm11.762 4.055c.05-2.078-.976-2.627-1.752-2.627-1.576 0-2.652.75-2.652 4.203 0 4.104.525 5.58 2.652 5.58.476 0 1.902-.5 1.827-2.777h2.152c.074 3.553-2.578 4.455-3.979 4.455-2.677 0-4.805-.801-4.805-6.381 0-3.705.426-6.758 4.805-6.758 2.528 0 4.004 1.477 3.879 4.305h-2.127zm11.36 0c.051-2.078-.976-2.627-1.751-2.627-1.577 0-2.653.75-2.653 4.203 0 4.104.525 5.58 2.653 5.58.476 0 1.901-.5 1.827-2.777h2.151c.075 3.553-2.577 4.455-3.979 4.455-2.678 0-4.805-.801-4.805-6.381 0-3.705.425-6.758 4.805-6.758 2.527 0 4.004 1.477 3.878 4.305h-2.126zm5.131-9.485h2.303v2.201h-2.303v-2.201zm2.178 18.069h-2.053V46.903h2.053v12.639zm3.002-6.131c0-3.705.426-6.758 4.805-6.758s4.805 3.053 4.805 6.758c0 5.58-2.127 6.381-4.805 6.381s-4.805-.801-4.805-6.381zm7.457-.877c0-3.453-1.076-4.203-2.652-4.203s-2.652.75-2.652 4.203c0 4.104.525 5.58 2.652 5.58s2.652-1.477 2.652-5.58zm.325-11.061-3.278 3.529h-1.676l2.227-3.529h2.727zm11.587 18.069v-8.76c0-1.352-.476-2.451-2.228-2.451-2.252 0-2.577 2.002-2.577 3.729v7.482h-2.053v-10.01c0-.877-.05-1.752-.125-2.629h2.178v1.627h.1c.801-1.426 1.752-1.877 3.379-1.877 2.702 0 3.378 1.627 3.378 4.129v8.76h-2.052z" />
    <path fill="#717073"
        d="M90.731.68c3.619 0 6.836 1.859 6.957 1.978.018.021 1.271-1.216 1.271-1.216h7.521c-.042 0 .037 13.781 0 13.769l-8.059-.012c0-4.964-2.518-6.716-5.852-6.716-4.072 0-5.314 3.879-5.314 8.369 0 3.619 1.668 7.238 5.822 7.238 2.686 0 5.032-2.619 5.338-6.39h8.055v1.357c0 9.782-10 12.695-13.619 12.695-6.727 0-17.162-3.62-17.162-15.608C75.69 7.918 81.569.68 90.731.68zm-17.67.762v12.811h-8.627c.011-.063 0-5.451 0-5.451h-9.055v4.186h6.393c.006.006-.003 4.904-.003 4.904h-6.39s.006 5.35 0 5.35h9.055v-6.146h8.63l-.005 13.299-32.912.001v-7.154h4.178c-.02-.153 0-14.439 0-14.439h-4.178V1.442h32.914zm36.307 0h18.593v7.379c.029 0-3.226.031-3.226 0 0 0 .012 4.044 0 4.044h8.154l.004-4.044H129.7V1.442h18.516l-.002 7.379h-4.072v14.477l4.139-.001v7.098H129.73v-7.098h3.16v-5.313h-8.216l-.006 5.314h3.293v7.097h-18.593v-7.098h4.063l.004-14.476h-4.066V1.442h-.001zm61.132 0h-18.596v7.379c-.023 0 4.225.031 4.225 0 0 0-.003 7.749-.003 14.477h-4.222v7.097H170.5v-7.098h-4.113V8.821h4.113V1.442zm34.863 28.952V8.821h5.206l.002-7.379h-17.399v7.379h4.542v7.133L186.497 1.442h-12.332v7.379c-.026 0 4.968.031 4.968 0 0 0-.003 7.749-.003 14.477h-4.965v7.097h16.71v-7.098h-4.112v-6.544c-.021 0 11.545 13.642 11.564 13.642h7.036v-.001zm34.952 0s.033-7.097-.002-7.097l-5.25-.001c-.026 0 0-14.476 0-14.476h4.019s.024 6.547.009 6.539c.016.029 9.213.011 9.239 0V1.442h-35.299V15.36c.023.011 9.222.029 9.235 0-.014.008.012-6.539.012-6.539h4.017s.026 14.476 0 14.476l-5.25.001c-.035 0 0 7.097 0 7.097h19.27zm-211.359 0s.031-7.097-.004-7.097l-5.249-.001c-.026 0 0-14.476 0-14.476h4.019s.023 6.547.009 6.539c.015.029 9.213.011 9.235 0V1.442H1.67V15.36c.023.011 9.221.029 9.235 0-.015.008.013-6.539.013-6.539h4.016s.025 14.476 0 14.476l-5.25.001c-.035 0 0 7.097 0 7.097h19.272z" />
</svg>
  