<svg xmlns="http://www.w3.org/2000/svg" xml:space="preserve" viewBox="0 0 64 26">
    <path fill="#717073" d="M11.478 5.494V25.49H6.464V5.494H0V1.1h18.627l-1.513 4.395h-5.636zm17.643 19.131c-1.35.656-3.196 1.375-6.426 1.375-5.651 0-8.65-4.167-8.65-9.401 0-5.519 3.386-9.616 8.331-9.616 5.086 0 7.807 3.733 7.807 9.581 0 .77-.072 1.284-.072 1.539H18.666c-.064 1.314.992 4.06 4.452 4.06 3.131 0 5.094-1.192 5.838-1.669l.165 4.131zM22.479 10.64c-2.152 0-3.494 1.68-3.849 3.914h7.139c.001-.989-.355-3.914-3.29-3.914M64 25.49l-7.77-10.096 7.697-7.898h-5.509l-6.321 6.579V0H47.33v25.49h4.767v-8.449l6.249 8.449H64zm-18.747-4.659c-.322.192-2.033 1.112-4.124 1.112-3.18 0-4.73-2.417-4.73-5.559 0-2.565 1.692-5.414 4.872-5.414 1.977 0 3.427.879 3.671 1.062l.281-4.044c-1.018-.523-2.482-1.007-4.374-1.007-5.225 0-9.218 4.061-9.218 9.655 0 5.339 3.461 9.363 8.902 9.363 2.101 0 3.759-.565 4.891-1.126l-.171-4.042z"/>
  </svg>
  